<?xml version="1.0" encoding="UTF-8"?>
<svg width="69px" height="69px" viewBox="0 0 69 69" version="1.1" xmlns="http://www.w3.org/2000/svg" xmlns:xlink="http://www.w3.org/1999/xlink">
    <!-- Generator: Sketch 48.2 (47327) - http://www.bohemiancoding.com/sketch -->
    <title>Just logo</title>
    <desc>Created with Sketch.</desc>
    <defs></defs>
    <g id="iPhone-7" stroke="none" stroke-width="1" fill="none" fill-rule="evenodd" transform="translate(-88.000000, -315.000000)">
        <g id="Just-logo" transform="translate(88.000000, 315.000000)">
            <path d="M34.2337278,68.7352941 C53.1404936,68.7352941 68.4674556,53.3483744 68.4674556,34.3676471 C68.4674556,17.2585541 56.0141585,3.06946284 39.7110654,0.437530511 C37.9276027,0.149612552 36.0980691,0 34.2337278,0 C15.326962,0 0,15.3869197 0,34.3676471 C0,53.3483744 15.326962,68.7352941 34.2337278,68.7352941 Z" id="Oval" fill="#002D4E"></path>
            <g id="Group-4" transform="translate(12.619841, 29.238925)" fill="#FFFFFF">
                <circle id="Oval-4" cx="5.5" cy="5.5" r="5.5"></circle>
                <circle id="Oval-4" cx="21.7989968" cy="5.5" r="5.5"></circle>
                <circle id="Oval-4" cx="38.0979936" cy="5.5" r="5.5"></circle>
            </g>
            <path d="M34.2337278,66.1657226 C16.7405673,66.1657226 2.55955877,51.9292392 2.55955877,34.3676471 C2.55955877,16.8060549 16.7405673,2.56957153 34.2337278,2.56957153 C51.7268883,2.56957153 65.9078969,16.8060549 65.9078969,34.3676471 C65.9078969,51.9292392 51.7268883,66.1657226 34.2337278,66.1657226 Z M34.2337278,63.3251997 C50.1642239,63.3251997 63.0784425,50.3604618 63.0784425,34.3676471 C63.0784425,18.3748323 50.1642239,5.41009441 34.2337278,5.41009441 C18.3032318,5.41009441 5.38901308,18.3748323 5.38901308,34.3676471 C5.38901308,50.3604618 18.3032318,63.3251997 34.2337278,63.3251997 Z" id="Oval-9" fill="#FFFFFF" fill-rule="nonzero"></path>
            <ellipse id="Oval-4" stroke="#FFFFFF" stroke-width="1.08" fill="#FFFFFF" opacity="0.1" cx="32.6618088" cy="30.5625897" rx="26.3296442" ry="27.3617909"></ellipse>
        </g>
    </g>
</svg>